<svg xmlns="http://www.w3.org/2000/svg" version="1.0" width="463.000000pt" height="105.000000pt" viewBox="0 0 463.000000 105.000000" preserveAspectRatio="xMidYMid meet">

<g transform="translate(0.000000,105.000000) scale(0.100000,-0.100000)" fill="#000000" stroke="none">
<path d="M383 906 c-47 -21 -67 -58 -59 -107 7 -43 44 -124 79 -171 l21 -28 38 58 c49 73 75 153 62 189 -19 53 -88 82 -141 59z"/>
<path d="M166 819 c-39 -11 -63 -35 -77 -77 -23 -70 32 -123 164 -158 84 -22 86 -22 76 34 -29 152 -85 222 -163 201z"/>
<path d="M610 806 c-14 -8 -35 -31 -47 -53 -19 -34 -53 -144 -53 -172 0 -32 171 13 219 58 55 52 37 137 -35 167 -41 17 -52 17 -84 0z"/>
<path d="M1499 761 c-21 -16 -22 -22 -11 -45 21 -46 92 -28 92 23 0 14 -29 41 -45 41 -7 0 -23 -8 -36 -19z"/>
<path d="M3229 761 c-21 -16 -22 -22 -11 -45 21 -46 92 -28 92 23 0 14 -29 41 -45 41 -7 0 -23 -8 -36 -19z"/>
<path d="M2510 540 l0 -230 45 0 c34 0 45 4 45 15 0 14 4 14 32 -1 43 -22 119 -21 160 3 50 28 80 95 76 166 -5 64 -25 98 -78 135 -42 28 -112 30 -157 2 l-33 -20 0 80 0 80 -45 0 -45 0 0 -230z m247 8 c61 -56 20 -168 -62 -168 -58 0 -94 36 -95 95 0 50 21 82 63 93 40 11 66 5 94 -20z"/>
<path d="M3660 690 l0 -79 -35 21 c-28 16 -47 19 -86 16 -56 -6 -93 -28 -127 -79 -20 -29 -23 -44 -20 -99 4 -74 29 -120 79 -146 42 -21 121 -21 153 -1 31 21 36 21 36 2 0 -11 11 -15 40 -15 l40 0 0 230 0 230 -40 0 -40 0 0 -80z m-59 -120 c6 0 21 -12 34 -26 41 -45 29 -130 -22 -153 -78 -35 -160 32 -139 114 11 42 68 80 104 69 8 -2 18 -4 23 -4z"/>
<path d="M1187 635 c-43 -15 -40 -13 -56 -42 -35 -68 3 -123 104 -146 78 -18 94 -29 75 -52 -16 -20 -70 -19 -114 2 -34 16 -36 16 -55 -8 -11 -13 -20 -27 -21 -31 0 -15 48 -38 100 -48 67 -13 113 -5 151 27 24 20 29 33 29 67 0 71 -15 84 -147 116 -47 12 -57 35 -21 49 20 7 40 5 103 -13 14 -4 26 2 39 20 19 26 19 27 1 41 -46 33 -126 41 -188 18z"/>
<path d="M1765 638 c-66 -23 -105 -81 -105 -155 0 -63 27 -112 76 -140 47 -27 121 -30 166 -7 l31 16 -7 -29 c-4 -15 -16 -36 -28 -46 -25 -21 -92 -22 -132 -2 -38 20 -39 20 -59 -14 -20 -34 -14 -41 48 -61 59 -19 148 -16 187 7 60 34 68 66 68 261 l0 172 -40 0 c-22 0 -40 -4 -40 -9 0 -5 -17 -3 -37 5 -45 16 -87 16 -128 2z m115 -73 c16 -8 34 -24 40 -34 32 -62 -15 -141 -85 -141 -27 0 -44 8 -66 29 -49 49 -33 125 31 150 35 14 47 13 80 -4z"/>
<path d="M2230 634 c-22 -10 -36 -11 -38 -4 -2 5 -21 10 -43 10 l-39 0 0 -165 0 -165 40 0 40 0 0 83 c1 138 21 187 77 187 13 0 32 -9 43 -20 18 -18 20 -33 20 -135 l0 -115 45 0 45 0 0 115 c0 140 -16 190 -66 211 -42 18 -80 17 -124 -2z"/>
<path d="M3100 639 c-13 -6 -33 -17 -42 -26 -17 -15 -18 -15 -18 5 0 19 -6 22 -45 22 l-45 0 0 -165 0 -165 45 0 45 0 0 94 c0 107 14 136 75 156 32 11 35 15 35 51 0 41 -7 45 -50 28z"/>
<path d="M3935 639 c-43 -12 -92 -67 -103 -114 -25 -118 55 -212 172 -202 28 2 61 8 72 11 19 7 21 5 17 -18 -11 -54 -89 -73 -159 -40 -33 16 -35 16 -54 -7 -23 -28 -24 -33 -7 -46 49 -40 186 -47 241 -14 58 36 66 67 66 260 l0 171 -40 0 c-22 0 -40 -4 -40 -9 0 -5 -17 -3 -37 5 -43 15 -84 16 -128 3z m108 -70 c63 -32 75 -102 28 -150 -77 -77 -202 17 -150 112 10 20 61 48 87 49 7 0 23 -5 35 -11z"/>
<path d="M4375 635 c-104 -37 -144 -174 -78 -264 51 -68 178 -87 252 -38 48 32 52 50 13 66 -22 9 -34 9 -61 -5 -44 -22 -109 -13 -135 18 l-18 23 131 3 c150 3 150 3 131 81 -13 55 -55 102 -109 120 -44 14 -77 13 -126 -4z m120 -81 c14 -9 25 -25 25 -35 0 -17 -8 -19 -79 -19 -44 0 -83 4 -86 10 -3 5 5 21 19 35 30 30 84 34 121 9z"/>
<path d="M1490 475 l0 -165 40 0 40 0 0 165 0 165 -40 0 -40 0 0 -165z"/>
<path d="M3220 475 l0 -165 40 0 40 0 0 165 0 165 -40 0 -40 0 0 -165z"/>
<path d="M28 570 c-25 -19 -28 -28 -28 -85 0 -57 3 -66 27 -85 23 -18 36 -21 70 -16 44 6 126 43 174 79 l28 20 -22 17 c-49 38 -136 80 -178 86 -36 5 -49 2 -71 -16z"/>
<path d="M661 550 c-35 -17 -76 -40 -93 -51 l-29 -21 53 -36 c58 -39 136 -72 171 -72 33 0 67 27 84 67 27 65 -23 143 -91 143 -17 0 -60 -14 -95 -30z"/>
<path d="M386 514 c-9 -8 -16 -24 -16 -34 0 -43 54 -65 84 -34 31 30 9 84 -34 84 -10 0 -26 -7 -34 -16z"/>
<path d="M265 385 c-128 -27 -185 -68 -185 -132 0 -21 7 -49 16 -62 16 -23 70 -51 98 -51 25 0 78 52 96 94 20 48 43 141 38 154 -1 5 -30 3 -63 -3z"/>
<path d="M511 343 c26 -137 70 -203 137 -203 49 0 86 28 102 76 24 72 -29 126 -156 158 -93 24 -93 24 -83 -31z"/>
<path d="M384 313 c-48 -75 -64 -109 -70 -157 -6 -41 -4 -48 24 -75 25 -26 38 -31 77 -31 39 0 52 5 77 31 28 27 30 34 24 74 -6 46 -50 143 -82 183 l-19 23 -31 -48z"/>
</g>
</svg>